HIERARCHY
ROOT Hips
{
	OFFSET -0.179506 -22.333345 2.821913
	CHANNELS 6 Xposition Yposition Zposition Zrotation Yrotation Xrotation 
	JOINT LeftUpLeg
	{
		OFFSET 6.951974 -9.140623 -0.681533
		CHANNELS 3 Zrotation Yrotation Xrotation
		JOINT LeftLeg
		{
			OFFSET 3.427654 -37.519855 -0.449580
			CHANNELS 3 Zrotation Yrotation Xrotation
			JOINT LeftFoot
			{
				OFFSET -1.359570 -39.796059 -4.369333
				CHANNELS 3 Zrotation Yrotation Xrotation
				JOINT LeftToe
				{
					OFFSET 2.635814 -5.579078 11.928840
					CHANNELS 3 Zrotation Yrotation Xrotation
					End Site
					{
						OFFSET 0.000000 0.000000 0.000000
					}
				}
			}
		}
	}
	JOINT RightUpLeg
	{
		OFFSET -6.767048 -9.052170 -0.431982
		CHANNELS 3 Zrotation Yrotation Xrotation
		JOINT RightLeg
		{
			OFFSET -3.829005 -38.256897 -0.885003
			CHANNELS 3 Zrotation Yrotation Xrotation
			JOINT RightFoot
			{
				OFFSET 1.577377 -39.841461 -4.231180
				CHANNELS 3 Zrotation Yrotation Xrotation
				JOINT RightToe
				{
					OFFSET -2.537174 -4.814398 12.334795
					CHANNELS 3 Zrotation Yrotation Xrotation
					End Site
					{
						OFFSET 0.000000 0.000000 0.000000
					}
				}
			}
		}
	}
	JOINT Spine
	{
		OFFSET -0.253288 10.896323 -2.669631
		CHANNELS 3 Zrotation Yrotation Xrotation
		JOINT Spine1
		{
			OFFSET 0.548704 13.518043 0.109247
			CHANNELS 3 Zrotation Yrotation Xrotation
			JOINT Spine2
			{
				OFFSET 0.145701 5.292222 2.542457
				CHANNELS 3 Zrotation Yrotation Xrotation
				JOINT Neck
				{
					OFFSET -0.277840 21.387037 -4.285703
					CHANNELS 3 Zrotation Yrotation Xrotation
					JOINT Head
					{
						OFFSET 0.515184 6.496960 5.134897
						CHANNELS 3 Zrotation Yrotation Xrotation
						End Site
						{
							OFFSET 0.000000 0.000000 0.000000
						}
					}
				}
				JOINT LeftShoulder
				{
					OFFSET 7.884473 12.174932 -3.408961
					CHANNELS 3 Zrotation Yrotation Xrotation
					JOINT LeftArm
					{
						OFFSET 9.097692 3.046888 -0.886815
						CHANNELS 3 Zrotation Yrotation Xrotation
						JOINT LeftForeArm
						{
							OFFSET 25.961220 -1.277207 -2.745643
							CHANNELS 3 Zrotation Yrotation Xrotation
							JOINT LeftHand
							{
								OFFSET 24.923361 0.898606 -0.117091
								CHANNELS 3 Zrotation Yrotation Xrotation
								End Site
								{
									OFFSET 0.000000 0.000000 0.000000
								}
							}
						}
					}
				}
				JOINT RightShoulder
				{
					OFFSET -8.175920 11.883285 -3.861528
					CHANNELS 3 Zrotation Yrotation Xrotation
					JOINT RightArm
					{
						OFFSET -9.601238 3.255117 -0.914307
						CHANNELS 3 Zrotation Yrotation Xrotation
						JOINT RightForeArm
						{
							OFFSET -25.374195 -1.332924 -2.140099
							CHANNELS 3 Zrotation Yrotation Xrotation
							JOINT RightHand
							{
								OFFSET -25.529810 0.777228 -0.555919
								CHANNELS 3 Zrotation Yrotation Xrotation
								End Site
								{
									OFFSET 0.000000 0.000000 0.000000
								}
							}
						}
					}
				}
			}
		}
	}
}
MOTION
Frames: 12
Frame Time: 0.033333
212.056610 -190.955307 94.678612 45.388224 0.334351 82.325523 2.450433 1.561664 2.808794 0.733971 -8.479015 7.526904 -1.031281 7.249652 -6.913946 nan nan nan 0.928771 -5.304878 -0.128735 -0.311217 -4.335049 13.164383 6.531325 -5.923821 -3.986702 nan nan nan 0.028035 2.460628 14.413919 0.479441 -1.717371 2.027894 1.284403 -0.879832 -0.221850 0.328258 -2.198085 -3.694218 4.919021 -4.197957 -10.970055 -25.158892 -2.373860 2.943645 -54.149249 -5.063620 10.230946 2.234412 -22.176369 11.545281 -14.413657 -2.251181 -10.707142 23.364934 3.631349 -1.958961 54.966901 5.031936 13.047232 -5.702267 24.874326 10.546371 18.987533 -2.291945 -2.513961 
212.072754 -190.960449 94.677788 45.378097 0.361157 82.241248 2.518291 1.545733 2.891513 0.675534 -8.416670 7.563836 -1.056110 7.219112 -6.916920 nan nan nan 0.950076 -5.326801 -0.019920 -0.309884 -4.259214 13.141078 6.457337 -5.942423 -3.978966 nan nan nan 0.051933 2.477170 14.544252 0.479646 -1.721008 2.000543 1.276232 -0.911068 -0.200183 0.368218 -2.203716 -3.837047 4.927731 -4.269715 -10.824457 -25.108181 -2.350839 2.896309 -54.162019 -5.125116 10.197997 2.248952 -22.237935 11.747014 -14.390540 -2.417840 -10.616645 23.385180 3.608092 -2.064903 54.966530 5.039334 13.030658 -5.574974 24.751204 10.744470 18.830747 -2.227792 -2.288972 
212.102814 -190.967117 94.689163 45.307065 0.374591 82.160876 2.559429 1.574728 3.019125 0.624011 -8.355476 7.550143 -1.005171 7.235134 -6.927083 nan nan nan 0.963189 -5.305410 0.094680 -0.318265 -4.215783 13.094200 6.457205 -5.985793 -3.972349 nan nan nan 0.059340 2.479439 14.615961 0.464852 -1.714818 2.065252 1.270445 -0.882539 -0.258115 0.380628 -2.216923 -3.860405 4.958358 -4.252783 -10.779788 -25.125786 -2.425420 2.968954 -54.103927 -5.070606 10.124402 2.322461 -22.438603 11.632685 -14.669861 -2.386791 -10.682399 23.392682 3.677327 -2.032783 55.008505 4.961328 12.966160 -5.666680 24.816364 10.716308 19.004940 -2.238919 -2.238860 
212.126007 -190.957321 94.702606 45.259423 0.401884 82.173059 2.602764 1.629729 3.014845 0.575047 -8.397783 7.573067 -0.986382 7.249761 -6.992892 nan nan nan 0.985533 -5.278497 0.074006 -0.319474 -4.186636 13.133100 6.530946 -6.002855 -3.980041 nan nan nan 0.049913 2.441410 14.648606 0.477773 -1.717067 2.047698 1.293156 -0.841387 -0.330030 0.386260 -2.195133 -3.787924 4.925616 -4.195003 -10.786011 -25.152439 -2.422090 2.963042 -54.043998 -5.037725 10.122996 2.320307 -22.496004 11.657214 -14.844018 -2.307172 -10.838646 23.361294 3.689265 -1.988610 55.062065 4.883812 12.957153 -5.745932 24.935392 10.645377 19.150871 -2.244894 -2.309494 
212.139709 -190.947556 94.696487 45.241981 0.425247 82.188854 2.654935 1.665849 2.959745 0.502181 -8.388115 7.674472 -1.006280 7.279274 -7.038765 nan nan nan 1.004110 -5.255196 0.050592 -0.313614 -4.171601 13.141097 6.494952 -6.009505 -3.975149 nan nan nan 0.040021 2.437717 14.667407 0.496237 -1.719851 2.008914 1.308451 -0.832090 -0.333057 0.356682 -2.165279 -3.769489 4.940758 -4.168206 -10.782663 -25.063369 -2.423704 2.949078 -54.102417 -5.107172 10.116407 2.344819 -22.489392 11.617050 -14.680895 -2.267279 -11.014106 23.292055 3.651863 -1.980945 55.168597 4.852395 12.974533 -5.787522 25.010576 10.553860 19.009373 -2.183208 -2.410559 
212.145493 -190.936096 94.697395 45.219518 0.456326 82.225496 2.715803 1.672801 2.857939 0.431484 -8.348445 7.800457 -1.005463 7.272861 -7.034586 nan nan nan 1.052792 -5.233209 -0.000112 -0.317036 -4.127965 13.169390 6.455370 -5.990039 -4.022222 nan nan nan 0.047481 2.459718 14.668429 0.515765 -1.721880 2.007990 1.317222 -0.857616 -0.366988 0.308695 -2.136113 -3.775114 4.923649 -4.112062 -10.823101 -24.974700 -2.484610 2.987399 -54.120050 -5.179082 10.119625 2.318192 -22.457288 11.535287 -14.503178 -2.224218 -11.130808 23.231418 3.646972 -1.965884 55.239797 4.833912 12.995602 -5.763566 25.051158 10.440395 18.909605 -2.108908 -2.591190 
212.148285 -190.928848 94.696884 45.246872 0.493976 82.278044 2.783279 1.658771 2.767706 0.401591 -8.250449 7.857017 -1.019736 7.211779 -7.039036 nan nan nan 1.107226 -5.246682 -0.056393 -0.351681 -4.193009 13.163851 6.414323 -5.991199 -4.039467 nan nan nan 0.050611 2.468125 14.616949 0.538476 -1.736908 2.041474 1.323606 -0.911636 -0.401139 0.285970 -2.166284 -3.723038 4.872538 -4.067657 -10.884655 -24.879052 -2.519753 3.075082 -54.164998 -5.200815 10.129805 2.464673 -22.620068 11.450103 -14.663037 -2.282603 -11.370173 23.161556 3.619449 -1.922978 55.352161 4.929048 12.992916 -5.856509 24.996189 10.623235 19.242993 -2.198980 -2.619494 
212.152283 -190.915283 94.698738 45.240504 0.525076 82.324453 2.826320 1.618678 2.693958 0.383649 -8.144936 7.891527 -1.078087 7.182944 -7.083667 nan nan nan 1.160865 -5.251001 -0.127404 -0.390820 -4.216218 13.185076 6.367162 -5.961272 -4.045242 nan nan nan 0.067643 2.465237 14.595307 0.548397 -1.743920 2.038114 1.311026 -0.932636 -0.382467 0.285779 -2.140851 -3.753843 4.828345 -4.076333 -10.831762 -24.921361 -2.520296 3.064343 -54.105349 -5.178376 10.129724 2.644364 -22.868967 11.347339 -14.784472 -2.211486 -11.235002 23.208799 3.575929 -1.907605 55.359856 5.016519 12.993474 -5.952998 24.951961 10.845077 19.638975 -2.392075 -2.505060 
212.154816 -190.897858 94.699219 45.237169 0.540256 82.395827 2.836866 1.570859 2.551752 0.318807 -8.144278 7.979197 -1.010637 7.157346 -7.115469 nan nan nan 1.177093 -5.222222 -0.197755 -0.383220 -4.231091 13.153059 6.303779 -5.936183 -4.032660 nan nan nan 0.061239 2.463415 14.558274 0.558182 -1.747722 2.001434 1.296903 -0.932570 -0.350798 0.277860 -2.121533 -3.751732 4.861069 -4.074998 -10.833038 -24.930455 -2.562719 3.066994 -54.029034 -5.141446 10.163696 2.745974 -23.118320 11.309573 -15.100065 -2.154073 -11.172674 23.274884 3.561476 -1.911899 55.307498 4.983883 12.992036 -5.972399 24.985198 10.997333 20.165654 -2.464457 -2.526239 
212.142776 -190.878326 94.701118 45.220741 0.581477 82.501059 2.902954 1.581066 2.344344 0.236683 -8.136341 8.108176 -0.950512 7.110365 -7.136214 nan nan nan 1.251971 -5.209098 -0.334797 -0.395906 -4.221326 13.138597 6.236836 -5.967952 -4.021945 nan nan nan 0.045901 2.456260 14.527212 0.587284 -1.747990 1.973665 1.324861 -0.915336 -0.390436 0.186189 -2.126102 -3.690437 4.910493 -4.029910 -10.948776 -24.926424 -2.626585 3.060583 -53.958312 -5.123075 10.175869 2.714775 -23.216489 11.284624 -15.056703 -2.128256 -11.141588 23.280272 3.567762 -1.884627 55.192657 4.855825 12.994228 -5.846755 25.200746 11.120828 20.422864 -2.406211 -2.643684 
212.147614 -190.854630 94.704269 45.205480 0.605762 82.558525 2.899928 1.528910 2.236357 0.237458 -8.125939 8.179002 -0.875816 7.146709 -7.081078 nan nan nan 1.283589 -5.168366 -0.416832 -0.408211 -4.268790 13.129263 6.219791 -6.037304 -3.970595 nan nan nan 0.050974 2.415281 14.535647 0.585713 -1.761352 1.968774 1.342481 -0.912896 -0.439623 0.146575 -2.084514 -3.696320 4.900143 -3.941157 -11.010699 -24.933824 -2.618602 3.019549 -53.914940 -5.118808 10.138238 2.753392 -23.287709 11.274238 -15.130089 -2.121533 -11.078676 23.301121 3.633022 -1.800745 55.087115 4.771412 13.026295 -5.781913 25.400609 11.172939 20.403639 -2.332352 -2.714840 
212.172195 -190.838882 94.706734 45.165273 0.635343 82.579644 2.914955 1.510248 2.221682 0.247786 -8.026363 8.191785 -0.826722 7.193160 -7.021004 nan nan nan 1.306776 -5.114076 -0.433739 -0.413412 -4.276474 13.125800 6.217234 -6.043786 -3.906356 nan nan nan 0.073858 2.374355 14.550508 0.588582 -1.768298 1.960466 1.350396 -0.893668 -0.459650 0.147616 -2.045626 -3.740309 4.870012 -3.890916 -10.979066 -24.915055 -2.602567 2.983016 -53.951870 -5.131670 10.126983 2.859574 -23.296682 11.292200 -15.147582 -2.116342 -11.078420 23.287112 3.685259 -1.745875 55.062349 4.772906 13.050951 -5.811222 25.391179 11.178960 20.317181 -2.308538 -2.732076 
